<?xml version="1.0" standalone="no"?>
<!DOCTYPE svg PUBLIC "-//W3C//DTD SVG 20010904//EN"
 "http://www.w3.org/TR/2001/REC-SVG-20010904/DTD/svg10.dtd">
<svg version="1.0" xmlns="http://www.w3.org/2000/svg"
 width="840.000000pt" height="353.000000pt" viewBox="0 0 840.000000 353.000000"
 preserveAspectRatio="xMidYMid meet">
<metadata>
Created by potrace 1.16, written by Peter Selinger 2001-2019
</metadata>
<g transform="translate(0.000000,353.000000) scale(0.100000,-0.100000)"
fill="#000000" stroke="none">
<path d="M1547 3085 c-392 -47 -685 -164 -881 -353 -176 -168 -266 -363 -282
-610 l-7 -102 120 118 c130 127 227 199 355 260 271 129 506 183 876 199 104
4 132 3 132 -7 0 -7 -18 -37 -40 -67 -76 -99 -148 -262 -223 -504 -20 -64 -42
-121 -50 -127 -7 -6 -30 -13 -52 -15 -124 -15 -157 -21 -225 -38 -176 -43
-315 -108 -402 -187 -75 -68 -119 -177 -86 -210 18 -18 101 -14 208 9 217 46
298 60 360 62 63 2 65 1 62 -21 -6 -39 -121 -271 -178 -358 -94 -143 -191
-235 -312 -296 -29 -14 -58 -30 -65 -36 -23 -18 -142 -52 -222 -63 -121 -17
-292 -1 -377 36 -26 10 -23 -19 7 -82 49 -107 156 -191 301 -239 83 -27 99
-29 249 -29 193 1 256 15 423 99 106 53 260 193 348 316 126 179 250 427 319
640 10 30 23 58 29 62 6 4 45 8 86 8 164 1 297 18 360 46 108 48 195 167 188
256 -2 34 -8 45 -28 55 -29 15 -218 16 -385 3 -60 -4 -114 -5 -118 -1 -9 9 63
314 99 421 29 85 85 205 108 234 22 27 56 27 472 -5 1204 -92 1725 -97 2184
-18 187 32 378 87 478 138 80 41 192 123 231 170 40 48 89 137 80 146 -3 2
-57 -6 -120 -20 -299 -63 -514 -82 -950 -84 -416 -2 -725 16 -1264 75 -126 14
-252 27 -280 30 -27 3 -120 14 -205 25 -521 64 -702 79 -985 77 -126 0 -279
-6 -338 -13z"/>
<path d="M6095 3048 c-56 -19 -126 -66 -168 -113 -20 -22 -68 -120 -132 -270
-24 -55 -68 -155 -98 -222 -31 -67 -115 -259 -187 -425 -72 -167 -156 -359
-187 -428 -31 -69 -64 -143 -74 -165 -10 -22 -50 -116 -89 -210 -138 -327
-149 -343 -282 -410 -105 -52 -156 -46 -178 21 -31 93 24 275 204 677 72 159
88 230 73 307 -16 76 -64 101 -156 82 -104 -22 -191 -96 -335 -282 -16 -21
-98 -121 -116 -141 -8 -10 -47 -60 -85 -113 -69 -94 -100 -120 -115 -96 -10
16 -1 48 44 152 80 191 107 267 118 339 10 68 10 80 -5 102 -44 68 -199 37
-265 -53 -22 -29 -122 -223 -122 -235 0 -4 -15 -41 -34 -83 -36 -83 -153 -393
-182 -482 -38 -119 -41 -125 -80 -147 -22 -12 -84 -39 -139 -58 -82 -29 -106
-34 -127 -26 -81 31 -62 146 77 466 47 110 98 224 111 253 52 111 125 325 119
349 -8 33 -42 43 -141 43 -136 0 -163 -20 -230 -173 -25 -56 -51 -115 -59
-132 -7 -16 -67 -150 -133 -297 -148 -327 -184 -387 -284 -461 -86 -64 -161
-58 -192 17 -16 37 -8 97 19 145 8 14 42 94 75 176 34 83 90 218 125 300 106
248 145 351 145 377 0 40 -25 53 -100 52 -72 0 -121 -22 -186 -83 -60 -55
-145 -201 -204 -351 -10 -25 -27 -63 -38 -85 -11 -22 -39 -85 -62 -140 -23
-55 -57 -136 -76 -181 -110 -259 -138 -415 -91 -504 37 -70 70 -82 207 -77 98
4 128 9 202 36 79 29 210 108 295 177 l32 26 10 -39 c6 -21 13 -55 16 -75 11
-73 74 -118 165 -118 54 0 188 35 310 81 61 23 117 39 125 35 9 -3 15 -18 15
-35 0 -18 11 -40 29 -60 26 -27 35 -31 84 -31 53 0 105 16 138 43 9 7 87 107
173 222 86 116 176 235 200 265 23 30 94 124 157 208 103 137 132 166 152 146
3 -3 -10 -50 -30 -103 -122 -329 -143 -417 -143 -581 0 -119 10 -152 54 -187
48 -38 213 -5 395 78 46 21 87 36 92 33 5 -3 9 -25 9 -49 0 -60 18 -75 87 -75
53 0 58 2 95 42 34 37 56 67 125 168 31 45 95 121 100 117 2 -2 8 -41 13 -85
16 -139 78 -220 187 -242 78 -17 238 -7 333 20 101 28 304 127 401 195 44 31
86 58 93 61 9 3 17 -11 26 -43 33 -119 85 -191 171 -238 48 -26 66 -30 158
-33 124 -5 189 7 290 55 108 50 175 98 266 188 84 84 198 245 240 338 71 161
116 366 116 522 0 155 1 153 -117 192 -165 57 -448 143 -466 143 -26 0 -164
-75 -226 -122 -146 -113 -280 -289 -363 -482 -57 -131 -137 -272 -186 -327
-128 -142 -370 -230 -518 -189 -82 23 -146 124 -129 203 13 62 35 87 180 204
657 530 718 584 730 649 8 45 1 60 -37 80 -45 23 -227 31 -300 14 -90 -21
-143 -66 -320 -267 -128 -146 -345 -397 -365 -422 -1 -1 -7 -1 -13 0 -5 2 12
47 38 99 52 103 307 595 377 726 23 44 75 146 114 225 40 79 87 169 105 199
49 84 252 485 259 513 9 39 -12 74 -56 91 -55 23 -178 20 -253 -6z m1215
-1394 c68 -58 96 -176 71 -306 -67 -353 -347 -688 -532 -638 -83 23 -125 104
-123 240 0 69 22 188 44 235 5 11 19 45 31 75 96 234 284 419 426 420 41 0 58
-5 83 -26z"/>
<path d="M7343 2700 c-31 -18 -40 -37 -44 -85 -3 -40 2 -54 26 -83 31 -37 31
-39 1 -133 -44 -137 -99 -229 -139 -229 -46 0 -103 99 -129 225 -10 47 -9 53
16 90 34 49 30 98 -9 133 -56 48 -155 8 -155 -63 0 -48 18 -82 50 -95 33 -14
35 -29 46 -307 3 -90 8 -163 10 -163 11 0 644 -203 672 -215 62 -28 63 -27
192 140 30 39 59 75 64 81 14 14 69 83 78 97 4 6 30 11 59 12 43 1 56 6 75 29
50 57 17 154 -53 157 -46 2 -57 -1 -83 -27 -21 -20 -25 -33 -24 -74 2 -46 0
-50 -45 -87 -119 -99 -199 -129 -239 -90 -26 27 -20 115 18 232 33 105 55 135
97 135 36 0 83 51 83 90 0 38 -24 86 -49 100 -11 5 -40 10 -64 10 -38 0 -49
-5 -71 -31 -30 -36 -34 -84 -10 -130 15 -31 15 -32 -33 -111 -121 -203 -221
-249 -277 -129 -18 40 -21 62 -19 169 1 102 5 127 19 143 9 10 23 19 30 19 7
0 24 14 38 31 46 55 31 131 -34 164 -38 20 -59 19 -97 -5z"/>
</g>
</svg>
